#!OML:ASF H:\MichaelJackson\Top Level 1\Subject 1\Session 1\male.ASF
:FULLY-SPECIFIED
:DEGREES
276
root 4.19952 15.9342 -26.6288 9.89715 49.2877 -2.09851
lowerback 2.35739 -4.83007 2.05939
upperback -0.0455617 -6.32434 3.01199
thorax -1.2443 -3.15804 2.15337
lowerneck -5.65698 -6.76461 -3.98456
upperneck 0.476894 -8.83372 3.54984
head 1.46605 -4.36377 1.5043
rclavicle 5.50634e-014 -1.98785e-014
rhumerus -39.4705 -15.7283 -64.5521
rradius 51.9185
rwrist 8.48069
rhand -29.2601 -28.0319
rfingers 7.12502
rthumb -2.60289 302.004
lclavicle 5.50634e-014 -1.98785e-014
lhumerus -51.5707 -27.9097 112.715
lradius 69.4167
lwrist 23.5108
lhand -3.54969 5.35726
lfingers 7.12502
lthumb 22.1863 34.104
rfemur -12.7307 7.00702 5.05825
rtibia 53.142
rfoot 9.7407 -34.6709
rtoes -7.15819
lfemur -44.8742 22.5231 -16.9982
ltibia 50.4275
lfoot -17.2265 -6.20376
ltoes 0.812721
277
root 4.29106 15.9551 -26.6032 10.1712 51.0871 -1.04177
lowerback 2.39841 -4.85647 1.6233
upperback 0.0351248 -6.37868 2.74647
thorax -1.16583 -3.1844 2.12144
lowerneck -5.47438 -7.20523 -4.19691
upperneck 0.796799 -9.4225 3.57234
head 1.57352 -4.65983 1.52387
rclavicle -4.2043e-014 -3.97569e-016
rhumerus -40.0704 -14.5378 -64.9442
rradius 48.0793
rwrist 15.2804
rhand -27.811 -18.533
rfingers 7.12502
rthumb -1.20341 311.491
lclavicle -4.2043e-014 -3.97569e-016
lhumerus -51.2647 -28.4086 112.266
lradius 69.1006
lwrist 23.2438
lhand -2.84311 5.72482
lfingers 7.12502
lthumb 22.8645 34.3894
rfemur -14.0282 8.44318 4.90334
rtibia 57.3605
rfoot 14.6794 -30.194
rtoes -4.76817
lfemur -44.1172 21.463 -17.7865
ltibia 50.0261
lfoot -17.3884 -6.92967
ltoes 1.15918
278
root 4.37795 15.9721 -26.5763 10.5022 52.8128 0.106908
lowerback 2.49813 -4.83068 1.26281
upperback 0.120107 -6.36073 2.38193
thorax -1.13684 -3.17526 1.95108
lowerneck -5.21892 -7.67495 -4.33443
upperneck 1.118 -10.0571 3.5429
head 1.66449 -4.98026 1.51426
rclavicle -6.77856e-014 2.42517e-014
rhumerus -40.7621 -13.8323 -65.4705
rradius 44.4414
rwrist 22.8898
rhand -27.4037 -10.3597
rfingers 7.12502
rthumb -0.810014 319.662
lclavicle -6.77856e-014 2.42517e-014
lhumerus -51.0324 -29.1235 111.753
lradius 68.7788
lwrist 22.9371
lhand -2.12024 6.19583
lfingers 7.12502
lthumb 23.5581 34.773
rfemur -15.4911 9.58727 4.73047
rtibia 61.6881
rfoot 18.7984 -23.803
rtoes -5.08155
lfemur -43.2871 20.4924 -18.5475
ltibia 49.6447
lfoot -17.5509 -7.70726
ltoes 1.61442
279
root 4.46127 15.9856 -26.5483 10.8742 54.4744 1.33022
lowerback 2.64783 -4.74564 1.00187
upperback 0.2216 -6.26143 1.91773
thorax -1.14248 -3.12586 1.62679
lowerneck -4.91346 -8.18105 -4.35267
upperneck 1.44682 -10.7489 3.47217
head 1.74201 -5.3299 1.47075
rclavicle 4.84041e-014 -5.96354e-015
rhumerus -41.5682 -13.6097 -66.1133
rradius 41.1308
rwrist 30.9097
rhand -27.7955 -4.86565
rfingers 7.12502
rthumb -1.1884 325.158
lclavicle 4.84041e-014 -5.96354e-015
lhumerus -50.863 -30.0823 111.186
lradius 68.447
lwrist 22.5924
lhand -1.44224 6.76414
lfingers 7.12502
lthumb 24.2083 35.2562
rfemur -17.0785 10.4001 4.54938
rtibia 66.019
rfoot 21.0665 -16.311
rtoes -6.28486
lfemur -42.3867 19.6253 -19.2739
ltibia 49.2841
lfoot -17.7146 -8.55729
ltoes 2.17806
280
root 4.54173 15.9965 -26.5187 11.278 56.0759 2.62005
lowerback 2.85106 -4.6129 0.834193
upperback 0.345565 -6.0963 1.36595
thorax -1.17447 -3.0438 1.16422
lowerneck -4.57766 -8.71387 -4.23086
upperneck 1.77603 -11.4848 3.37207
head 1.80426 -5.70115 1.39474
rclavicle 1.0476e-013 -9.54166e-015
rhumerus -42.4624 -13.7618 -66.9109
rradius 38.305
rwrist 38.2339
rhand -28.1014 -2.24487
rfingers 7.12502
rthumb -1.48388 327.781
lclavicle 1.0476e-013 -9.54166e-015
lhumerus -50.7263 -31.2408 110.558
lradius 68.0934
lwrist 22.192
lhand -0.809846 7.33496
lfingers 7.12502
lthumb 24.8145 35.7449
rfemur -18.743 10.918 4.38224
rtibia 70.2661
rfoot 21.5599 -8.86546
rtoes -6.68208
lfemur -41.4176 18.8838 -19.9668
ltibia 48.9405
lfoot -17.8864 -9.47927
ltoes 2.77732
281
root 4.61987 16.0055 -26.4878 11.7297 57.6403 3.99722
lowerback 3.12428 -4.46955 0.718587
upperback 0.493534 -5.9151 0.766799
thorax -1.22895 -2.95352 0.628858
lowerneck -4.25579 -9.25039 -4.00731
upperneck 2.10964 -12.2291 3.25289
head 1.86046 -6.07551 1.29638
rclavicle -1.10822e-014 2.38542e-015
rhumerus -43.3478 -14.1295 -67.9025
rradius 36.0427
rwrist 43.5462
rhand -27.3551 -1.6501
rfingers 7.12502
rthumb -0.763075 328.372
lclavicle -1.10822e-014 2.38542e-015
lhumerus -50.5578 -32.4746 109.864
lradius 67.708
lwrist 21.7306
lhand -0.267554 7.8728
lfingers 7.12502
lthumb 25.3341 36.2101
rfemur -20.4447 11.1137 4.22896
rtibia 74.3609
rfoot 20.9693 -2.14119
rtoes -5.94225
lfemur -40.3777 18.2367 -20.6327
ltibia 48.6056
lfoot -18.0589 -10.4562
ltoes 3.38269
282
root 4.69522 16.013 -26.4556 12.2879 59.1479 5.48603
lowerback 3.45151 -4.34279 0.585355
upperback 0.652535 -5.75605 0.168851
thorax -1.29735 -2.87369 0.108016
lowerneck -3.9866 -9.76301 -3.76764
upperneck 2.459 -12.9397 3.14882
head 1.92755 -6.43144 1.19994
rclavicle -3.52346e-014 -1.64991e-014
rhumerus -44.13 -14.5625 -69.1202
rradius 34.2564
rwrist 46.3847
rhand -25.5252 -2.43592
rfingers 7.12502
rthumb 1.00432 327.587
lclavicle -3.52346e-014 -1.64991e-014
lhumerus -50.2938 -33.6358 109.101
lradius 67.2827
lwrist 21.2104
lhand 0.158766 8.35118
lfingers 7.12502
lthumb 25.7424 36.63
rfemur -22.2166 11.0331 4.07551
rtibia 78.2618
rfoot 20.0343 3.48907
rtoes -4.22075
lfemur -39.3048 17.68 -21.2863
ltibia 48.2701
lfoot -18.2222 -11.4673
ltoes 3.99367
283
root 4.76805 16.0195 -26.4226 13.0142 60.6041 7.11693
lowerback 3.80762 -4.26497 0.395729
upperback 0.812876 -5.66383 -0.389656
thorax -1.36917 -2.82634 -0.337933
lowerneck -3.77398 -10.2218 -3.56664
upperneck 2.7944 -13.5742 3.0728
head 2.00064 -6.74799 1.11977
rclavicle 1.88522e-013 -2.44505e-014
rhumerus -44.7576 -14.9805 -70.5383
rradius 32.8718
rwrist 46.6091
rhand -23.1174 -4.04758
rfingers 7.12502
rthumb 3.32969 325.999
lclavicle 1.88522e-013 -2.44505e-014
lhumerus -49.8848 -34.5901 108.262
lradius 66.8097
lwrist 20.6302
lhand 0.433903 8.75181
lfingers 7.12502
lthumb 26.0059 36.9922
rfemur -24.0785 10.6617 3.90977
rtibia 81.9349
rfoot 19.2224 7.97204
rtoes -2.19898
lfemur -38.2306 17.1643 -21.938
ltibia 47.9281
lfoot -18.3746 -12.4763
ltoes 4.59393
284
root 4.83814 16.0254 -26.388 13.8812 61.9587 8.8225
lowerback 4.16385 -4.23154 0.128526
upperback 0.966589 -5.63359 -0.870207
thorax -1.43231 -2.80896 -0.659741
lowerneck -3.64425 -10.6145 -3.4487
upperneck 3.12604 -14.1148 3.03735
head 2.09287 -7.01645 1.06455
rclavicle -9.2733e-014 1.55052e-014
rhumerus -45.2274 -15.3767 -72.077
rradius 31.8292
rwrist 44.433
rhand -20.6434 -5.86173
rfingers 7.12502
rthumb 5.71862 324.235
lclavicle -9.2733e-014 1.55052e-014
lhumerus -49.3226 -35.2566 107.365
lradius 66.2982
lwrist 20.0077
lhand 0.560024 9.065
lfingers 7.12502
lthumb 26.1267 37.2876
rfemur -26.0796 10.0741 3.77378
rtibia 85.3593
rfoot 18.6855 11.2034
rtoes -0.108961
lfemur -37.1857 16.7089 -22.5498
ltibia 47.5803
lfoot -18.5181 -13.4483
ltoes 5.1645
285
root 4.90548 16.0308 -26.3529 14.9115 63.2288 10.6068
lowerback 4.50624 -4.24341 -0.196721
upperback 1.10367 -5.66666 -1.27761
thorax -1.49256 -2.82248 -0.872656
lowerneck -3.56025 -10.946 -3.43888
upperneck 3.41617 -14.5682 3.05779
head 2.19028 -7.24094 1.0448
rclavicle -2.57178e-014 9.88954e-015
rhumerus -45.5428 -15.8227 -73.6324
rradius 31.0664
rwrist 40.2945
rhand -18.5963 -7.6903
rfingers 7.12502
rthumb 7.69483 322.47
lclavicle -2.57178e-014 9.88954e-015
lhumerus -48.6432 -35.6369 106.43
lradius 65.7582
lwrist 19.3913
lhand 0.576591 9.25288
lfingers 7.12502
lthumb 26.1425 37.4731
rfemur -28.2298 9.29801 3.67792
rtibia 88.5057
rfoot 18.3478 13.1458
rtoes 1.82295
lfemur -36.2005 16.2345 -23.1254
ltibia 47.2349
lfoot -18.6493 -14.318
ltoes 5.65228
286
root 4.97052 16.0356 -26.316 16.0869 64.3716 12.4489
lowerback 4.82044 -4.31807 -0.644631
upperback 1.21807 -5.78936 -1.56658
thorax -1.53752 -2.87999 -0.893667
lowerneck -3.47381 -11.1742 -3.64257
upperneck 3.61981 -14.8753 3.16256
head 2.28022 -7.39375 1.09176
rclavicle -2.34317e-014 -2.48481e-015
rhumerus -45.7011 -16.1429 -75.1475
rradius 30.6063
rwrist 34.8543
rhand -17.143 -9.45415
rfingers 7.12502
rthumb 9.09738 320.762
lclavicle -2.34317e-014 -2.48481e-015
lhumerus -47.8388 -35.5814 105.472
lradius 65.1971
lwrist 18.7844
lhand 0.449807 9.34622
lfingers 7.12502
lthumb 26.0211 37.5844
rfemur -30.5213 8.39183 3.66521
rtibia 91.3385
rfoot 17.9751 13.8673
rtoes 3.10508
lfemur -35.2782 15.7705 -23.6638
ltibia 46.9078
lfoot -18.7859 -15.0668
ltoes 6.06605
287
root 5.03366 16.0393 -26.2787 17.4018 65.387 14.338
lowerback 5.08414 -4.37854 -1.1039
upperback 1.32272 -5.89502 -1.83495
thorax -1.56007 -2.92886 -0.892021
lowerneck -3.38171 -11.3764 -3.86097
upperneck 3.7302 -15.1488 3.32933
head 2.34536 -7.52932 1.16432
rclavicle 6.91709e-014 -7.20594e-015
rhumerus -45.8396 -16.5587 -76.5825
rradius 30.4798
rwrist 28.9999
rhand -16.2598 -11.0662
rfingers 7.12502
rthumb 9.94952 319.189
lclavicle 6.91709e-014 -7.20594e-015
lhumerus -47.0256 -35.4146 104.53
lradius 64.6432
lwrist 18.2955
lhand 0.13229 9.43264
lfingers 7.12502
lthumb 25.7171 37.7151
rfemur -32.9434 7.40654 3.75131
rtibia 93.7933
rfoot 17.5299 13.3851
rtoes 4.47506
lfemur -34.4083 15.2916 -24.1754
ltibia 46.536
lfoot -18.8879 -15.6714
ltoes 6.35401
288
root 5.09519 16.0407 -26.241 18.7942 66.2806 16.2357
lowerback 5.31522 -4.42951 -1.55371
upperback 1.42162 -5.98847 -2.09287
thorax -1.56932 -2.97161 -0.888111
lowerneck -3.26743 -11.5451 -4.06229
upperneck 3.74255 -15.3798 3.5427
head 2.37644 -7.64337 1.25499
rclavicle 8.99174e-014 7.52897e-015
rhumerus -45.981 -16.9138 -77.9944
rradius 30.6712
rwrist 23.5255
rhand -15.894 -12.4553
rfingers 7.12502
rthumb 10.3024 317.817
lclavicle 8.99174e-014 7.52897e-015
lhumerus -46.2331 -35.1451 103.602
lradius 64.1087
lwrist 17.9587
lhand -0.344943 9.50706
lfingers 7.12502
lthumb 25.2599 37.8549
rfemur -35.4375 6.38515 3.9935
rtibia 95.8547
rfoot 16.8675 11.8679
rtoes 5.74828
lfemur -33.6132 14.8002 -24.6475
ltibia 46.2283
lfoot -19.0158 -16.1249
ltoes 6.54587
